<svg width="1920" height="288" viewBox="0 0 1920 288" fill="none" xmlns="http://www.w3.org/2000/svg">
<path d="M41.6673 136.246C108.68 99.3752 178.465 62.0178 256.918 32.8157C293.631 19.1232 335.508 1.96826 382.737 0.0653298C419.749 -1.43698 411.488 23.4012 408.2 32.8157C395.89 68.213 345.753 104.354 305.996 136.246C298.142 142.399 294.229 145.46 286.376 151.613C236.184 190.086 181.699 228.102 108.408 255.043C59.9559 272.856 -2.3014 289.482 -58.8792 287.794C-92.7389 286.778 -136.055 280.125 -125.403 255.043C-108.527 215.253 -36.7046 180.457 14.1122 151.613C25.1451 145.46 30.6344 142.399 41.6673 136.246ZM30.3626 214.81C25.6614 221.091 28.4332 224.224 38.4607 224.224C48.4882 224.224 61.369 221.105 75.7988 214.81C96.7777 205.667 114.523 194.121 131.235 182.732C169.307 157.05 207.379 131.382 245.478 105.699C267.517 90.8478 280.968 80.3746 286.077 74.2938C291.186 68.213 290.126 65.1655 282.653 65.1655C275.18 65.1655 264.799 68.1987 251.483 74.2938C231.075 83.6081 213.086 94.7109 195.748 105.699C155.013 131.382 114.278 157.05 73.5433 182.732C49.5752 197.841 35.091 208.543 30.3898 214.81H30.3626Z" fill="white"/>
<path d="M492.79 4.08796H566.977C540.971 39.7142 517.22 75.5979 495.643 112.04C493.143 116.261 490.235 120.911 486.975 125.961C483.686 131.026 480.643 135.662 477.762 139.883H478.958C482.871 135.404 487.002 130.854 491.35 126.247C495.698 121.64 499.91 117.162 503.959 112.798C537.71 76.5566 571.434 40.3151 605.157 4.08796H666.926C595.347 97.3028 523.742 190.532 452.164 283.747H327.486C343.438 246.761 361.944 210.334 383.058 174.078C385.395 170.229 388.167 166.08 391.374 161.587C394.58 157.109 397.977 152.688 401.537 148.338H400.314C395.939 152.817 391.999 156.766 388.439 160.157C384.906 163.548 380.667 167.554 375.776 172.161C336.182 209.361 296.588 246.561 256.995 283.761H149.383C263.897 190.532 378.357 97.3171 492.79 4.08796Z" fill="white"/>
<path d="M688.694 4.08796H846.606C839.215 29.2552 831.823 54.4082 824.459 79.5755H720.896C714.401 92.0232 711.167 98.2471 704.673 110.695H799.757C792.664 132.471 785.572 154.233 778.479 176.01H670.596C663.231 190.146 659.535 197.214 652.171 211.35H789.865C782.936 235.487 776.033 259.624 769.104 283.761H489.992C556.217 190.546 622.469 97.3171 688.694 4.10226V4.08796Z" fill="white"/>
<path d="M807.935 192.138H909.351C909.107 195.129 908.971 196.631 908.699 199.635C907.775 208.735 909.786 215.46 914.895 219.809C920.004 224.159 927.776 226.334 937.993 226.334C946.961 226.334 953.972 224.631 958.891 221.24C963.782 217.849 966.146 213.199 966.065 207.319C965.983 201.424 963.293 196.76 958.184 193.297C953.048 189.835 937.939 184.87 914.378 178.317C886.416 170.534 860.274 158.987 846.414 144.036C830.082 126.394 833.126 105.662 837.8 87.2769C843.262 65.801 853.752 40.4907 878.834 23.0209C893.862 12.562 914.895 0.5578 943.401 0.457646C966.5 0.3718 994.218 10.3443 1006.28 20.2452C1025.88 36.3271 1038.32 56.8015 1041.23 76.3315C1042.24 81.7827 1042.75 84.5155 1043.76 89.9668H961.88C961.88 87.8206 961.853 86.7332 961.826 84.5871C961.771 77.934 960.005 72.8404 956.635 69.3207C953.266 65.801 948.7 64.0412 942.83 64.0412C936.39 64.0412 931.689 65.4147 928.645 68.1761C925.602 70.9375 923.89 74.6146 923.536 79.2217C923.183 83.9575 925.085 87.6489 929.352 90.2672C933.618 92.8855 947.043 97.7788 970.875 104.575C997.316 112.129 1020.36 123.361 1036.37 136.653C1057.29 154.022 1067.97 176.071 1070.71 196.388C1073.89 220.11 1073.32 244.776 1043.65 264.192C1016.72 281.79 976.038 287.671 938.02 287.814C901.063 287.943 861.007 282.763 830.735 267.84C801.087 253.218 798.37 228.537 803.533 208.678C805.272 202.068 806.142 198.763 807.908 192.153L807.935 192.138Z" fill="white"/>
<path d="M1048.54 4.08796H1123.62C1137.51 35.7796 1151.4 67.4712 1165.28 99.1628H1205.55C1188.98 67.4712 1172.4 35.7796 1155.82 4.08796H1230.75C1297.95 97.3028 1365.15 190.532 1432.38 283.747H1302.11C1283.9 248.922 1265.67 214.082 1247.46 179.257H1200.36C1215.61 214.082 1230.88 248.922 1246.13 283.747H1115.61C1093.24 190.532 1070.9 97.3028 1048.54 4.08796Z" fill="white"/>
<path d="M1350.61 136.248C1326.76 103.827 1295.29 65.8539 1300.83 32.8174C1302.79 21.128 1307.38 -1.0347 1342.76 0.0669965C1385.59 1.41192 1422.19 19.0247 1452.14 32.8174C1515.21 61.8764 1566.68 99.4628 1614.97 136.248C1622.88 142.4 1626.85 145.462 1634.73 151.614C1671.25 180.716 1726.09 218.374 1721.82 255.045C1718.89 280.341 1675.9 286.694 1638.45 287.795C1584.02 289.398 1531.05 273.159 1488.01 255.045C1427.49 229.591 1392.44 189.015 1362.46 151.614C1357.73 145.462 1355.37 142.4 1350.64 136.248H1350.61ZM1540.62 214.812C1551.98 221.078 1562.82 224.226 1572.85 224.226C1582.88 224.226 1587.52 221.093 1586.08 214.812C1584.64 208.545 1575.62 197.843 1559.32 182.734C1531.6 157.051 1503.88 131.383 1476.16 105.701C1460.13 90.8495 1446.76 80.3762 1436.27 74.2955C1425.81 68.2147 1416.95 65.1671 1409.47 65.1671C1402 65.1671 1399.58 68.2147 1401.68 74.2955C1403.77 80.3762 1411.92 90.8495 1426.43 105.701C1451.49 131.383 1476.54 157.051 1501.6 182.734C1516.35 197.843 1529.29 208.545 1540.65 214.812H1540.62Z" fill="white"/>
<path d="M1454.8 4.08796H1636.84L1772.2 79.5755H1709.02C1821.61 147.637 1934.19 215.699 2046.78 283.761H1914.24C1815.35 215.699 1716.47 147.637 1617.6 79.5755H1553.91L1454.83 4.08796H1454.8Z" fill="white"/>
</svg>
