<svg width="37" height="38" viewBox="0 0 37 38" fill="none" xmlns="http://www.w3.org/2000/svg">
<path d="M18.8721 0.00585938C28.813 0.261213 36.7939 8.51018 36.7939 18.6484L36.7881 19.1299C36.5361 29.2065 28.3989 37.2967 18.3975 37.2969L17.9219 37.291C8.13891 37.0396 0.253798 29.0465 0.00585938 19.1299L0 18.6484C0 8.34922 8.23701 0 18.3975 0L18.8721 0.00585938ZM18.3975 3.24414C10.07 3.24414 3.24414 10.0993 3.24414 18.6484C3.24416 27.1976 10.0701 34.0527 18.3975 34.0527C26.7247 34.0525 33.5498 27.1975 33.5498 18.6484C33.5498 10.0994 26.7247 3.24433 18.3975 3.24414ZM15.6953 12.4814L13.873 14.3271L15.6953 16.1738L13.8359 18.0586L12.0137 16.2119L10.1934 18.0586L8.33398 16.1738L10.1543 14.3271L8.33398 12.4824L10.1934 10.5967L12.0146 12.4424L13.8359 10.5967L15.6953 12.4814ZM28.4609 12.4814L26.6387 14.3271L28.4609 16.1738L26.6016 18.0586L24.7793 16.2119L22.959 18.0586L21.0996 16.1738L22.9199 14.3271L21.0996 12.4824L22.959 10.5967L24.7803 12.4424L26.6016 10.5967L28.4609 12.4814Z" fill="white"/>
</svg>
